# xmcd
#
# Track frame offsets: 
#        150
#        3610
#        13607
#        24908
#        43192
#        62860
#        81834
#        96977
#        117343
#        135997
#        156030
#        170967
#        186784
#        204376
#        219348
#        238759
#        255562
#
# Disc length: 3701 seconds
#
# Revision: 2
# Processed by: cddbd v1.5.2PL0 Copyright (c) Steve Scherf et al.
# Submitted via: ExactAudioCopyFreeDBPlugin 1.0
#
DISCID=e60e7311
DTITLE=Ski King - Sketchbook III
DYEAR=2015
DGENRE=Country
TTITLE0=Intro
TTITLE1=Have Your Ever Seen The Rain
TTITLE2=Unknown Stuntman
TTITLE3=Little Girl
TTITLE4=The Number Of The Beast
TTITLE5=Death Is Not The End
TTITLE6=Red Light
TTITLE7=Hallelujah
TTITLE8=Still Counting
TTITLE9=Tears In Heaven
TTITLE10=Stand By Me
TTITLE11=Stone in My Hand
TTITLE12=Summer Wine
TTITLE13=Creep
TTITLE14=Thunder Rolls
TTITLE15=51st State of America
TTITLE16=Wish You Where Here
EXTD=
EXTT0=
EXTT1=
EXTT2=
EXTT3=
EXTT4=
EXTT5=
EXTT6=
EXTT7=
EXTT8=
EXTT9=
EXTT10=
EXTT11=
EXTT12=
EXTT13=
EXTT14=
EXTT15=
EXTT16=
PLAYORDER=
